<svg width="25" height="24" viewBox="0 0 25 24" fill="none" xmlns="http://www.w3.org/2000/svg">
<path d="M4.5 14.75C2.98 14.75 1.75 13.52 1.75 12C1.75 10.48 2.98 9.25 4.5 9.25C6.02 9.25 7.25 10.48 7.25 12C7.25 13.52 6.02 14.75 4.5 14.75Z" fill="#5D5D5D"/>
<path d="M20.5 14.75C18.98 14.75 17.75 13.52 17.75 12C17.75 10.48 18.98 9.25 20.5 9.25C22.02 9.25 23.25 10.48 23.25 12C23.25 13.52 22.02 14.75 20.5 14.75Z" fill="#5D5D5D"/>
<path d="M12.5 14.75C10.98 14.75 9.75 13.52 9.75 12C9.75 10.48 10.98 9.25 12.5 9.25C14.02 9.25 15.25 10.48 15.25 12C15.25 13.52 14.02 14.75 12.5 14.75Z" fill="#5D5D5D"/>
</svg>
