<svg width="25" height="25" viewBox="0 0 25 25" fill="none" xmlns="http://www.w3.org/2000/svg">
<path d="M1.5 22.4999C1.49994 23.0521 1.9476 23.4999 2.49989 23.5C3.05217 23.5 3.49994 23.0524 3.5 22.5001L1.5 22.4999ZM2.50042 18.7495L3.50042 18.7497L2.50042 18.7495ZM13.125 16C13.6773 16 14.125 15.5523 14.125 15C14.125 14.4477 13.6773 14 13.125 14V16ZM22.5 17.25C23.0523 17.25 23.5 16.8023 23.5 16.25C23.5 15.6977 23.0523 15.25 22.5 15.25V17.25ZM16.875 15.25C16.3227 15.25 15.875 15.6977 15.875 16.25C15.875 16.8023 16.3227 17.25 16.875 17.25V15.25ZM18.6875 19.0623C18.6875 19.6146 19.1352 20.0623 19.6875 20.0623C20.2398 20.0623 20.6875 19.6146 20.6875 19.0623H18.6875ZM20.6875 13.4373C20.6875 12.885 20.2398 12.4373 19.6875 12.4373C19.1352 12.4373 18.6875 12.885 18.6875 13.4373H20.6875ZM18.614 1.62766C18.1322 1.35762 17.5227 1.52925 17.2527 2.01101C16.9826 2.49277 17.1543 3.10223 17.636 3.37228L18.614 1.62766ZM17.636 9.12766C17.1543 9.39771 16.9826 10.0072 17.2527 10.4889C17.5227 10.9707 18.1322 11.1423 18.614 10.8723L17.636 9.12766ZM14 6.24997C14 7.76875 12.7688 8.99997 11.25 8.99997V11C13.8733 11 16 8.87332 16 6.24997H14ZM11.25 8.99997C9.73121 8.99997 8.5 7.76875 8.5 6.24997H6.5C6.5 8.87332 8.62664 11 11.25 11V8.99997ZM8.5 6.24997C8.5 4.73119 9.73121 3.49997 11.25 3.49997V1.49997C8.62664 1.49997 6.5 3.62662 6.5 6.24997H8.5ZM11.25 3.49997C12.7688 3.49997 14 4.73119 14 6.24997H16C16 3.62662 13.8733 1.49997 11.25 1.49997V3.49997ZM3.5 22.5001L3.50042 18.7497L1.50042 18.7494L1.5 22.4999L3.5 22.5001ZM6.25042 14C3.62728 14 1.50072 16.1263 1.50042 18.7494L3.50042 18.7497C3.50059 17.231 4.73176 16 6.25042 16V14ZM6.25042 16H13.125V14H6.25042V16ZM22.5 15.25H19.6875V17.25H22.5V15.25ZM19.6875 15.25H16.875V17.25H19.6875V15.25ZM20.6875 19.0623V16.25H18.6875V19.0623H20.6875ZM20.6875 16.25V13.4373H18.6875V16.25H20.6875ZM17.636 3.37228C18.9343 4.10002 19.625 5.17416 19.625 6.24997H21.625C21.625 4.25261 20.3495 2.6005 18.614 1.62766L17.636 3.37228ZM19.625 6.24997C19.625 7.32578 18.9343 8.39992 17.636 9.12766L18.614 10.8723C20.3495 9.89944 21.625 8.24733 21.625 6.24997H19.625Z" fill="#535353"/>
</svg>
