<svg width="25" height="25" viewBox="0 0 25 25" fill="none" xmlns="http://www.w3.org/2000/svg">
<path d="M2.5 22.5L2.50042 18.7496C2.50065 16.6787 4.17952 15 6.25042 15H13.125M15 6.25C15 8.32107 13.3211 10 11.25 10C9.17893 10 7.5 8.32107 7.5 6.25C7.5 4.17893 9.17893 2.5 11.25 2.5C13.3211 2.5 15 4.17893 15 6.25Z" stroke="#3D3E40" stroke-width="2" stroke-linecap="round" stroke-linejoin="round"/>
<path d="M23.22 16.875H14.78M23.25 17.1258V22.1875C23.25 22.7743 22.7743 23.25 22.1875 23.25H15.8125C15.2257 23.25 14.75 22.7743 14.75 22.1875V17.1258C14.75 16.9609 14.7884 16.7982 14.8622 16.6507L15.5922 15.1905C15.7272 14.9205 16.0032 14.75 16.305 14.75H21.695C21.9968 14.75 22.2728 14.9205 22.4078 15.1905L23.1378 16.6507C23.2116 16.7982 23.25 16.9609 23.25 17.1258Z" stroke="#3D3E40" stroke-width="1.2" stroke-linecap="round" stroke-linejoin="round"/>
<path d="M17 18.75H21" stroke="#3D3E40" stroke-width="0.5" stroke-linecap="round"/>
</svg>
