<svg width="125" height="56" viewBox="0 0 125 56" fill="none" xmlns="http://www.w3.org/2000/svg">
<g clip-path="url(#clip0_3469_36410)">
<path d="M23.9171 19.2884C23.9171 14.2318 27.4118 10.8228 32.3931 10.8228C37.3744 10.8228 40.7372 14.1056 40.7372 19.2403V26.9603H36.3494V24.3509C35.9445 25.2905 35.2617 26.0828 34.3933 26.6204C33.5249 27.1581 32.5129 27.4153 31.494 27.3571C28.0053 27.3571 23.9111 24.7477 23.9111 19.2703M35.9717 19.0839C35.9717 16.8232 34.5091 15.26 32.3751 15.26C30.2412 15.26 28.7785 16.8232 28.7785 19.0839C28.7785 21.3446 30.2352 22.9019 32.3751 22.9019C34.5151 22.9019 35.9717 21.3386 35.9717 19.0839Z" fill="#6C54FF"/>
<path d="M43.8428 18.1093C43.8428 13.0528 46.762 10.8221 50.5684 10.8221C51.5847 10.7761 52.5968 10.9812 53.5155 11.4195C54.4343 11.8577 55.2316 12.5156 55.8375 13.3354C56.4411 12.5132 57.2381 11.8536 58.1573 11.4151C59.0766 10.9766 60.0898 10.7729 61.1065 10.8221C64.9129 10.8221 67.8321 13.0528 67.8321 18.1093V26.9597H63.0726V18.1093C63.0726 16.0109 62.0536 15.2774 60.6269 15.2774C59.2003 15.2774 58.2292 16.0109 58.2292 18.1093V26.9597H53.4697V18.1093C53.4697 16.0109 52.4567 15.2774 51.072 15.2774C49.6873 15.2774 48.6262 16.0109 48.6262 18.1093V26.9597H43.8668L43.8428 18.1093Z" fill="#6C54FF"/>
<path d="M70.9375 19.2578C70.9375 13.9728 74.4922 10.8403 79.2816 10.8403C84.2629 10.8403 87.7517 14.2494 87.7517 19.3059C87.7517 24.7833 83.6935 27.3928 80.1389 27.3928C79.2806 27.4305 78.4263 27.2555 77.6516 26.8832C76.8768 26.5109 76.2055 25.9528 75.697 25.2583V33.6758H70.9375V19.2578ZM82.9262 19.1015C82.9262 16.8408 81.4636 15.2776 79.3296 15.2776C77.1956 15.2776 75.733 16.8408 75.733 19.1015C75.733 21.3622 77.1896 22.9195 79.3296 22.9195C81.4696 22.9195 82.9262 21.3562 82.9262 19.1015Z" fill="#6C54FF"/>
<path d="M89.5908 19.2884C89.5908 14.2318 93.0795 10.8228 98.0608 10.8228C103.042 10.8228 106.405 14.1056 106.405 19.2403V26.9603H102.029V24.3509C101.624 25.29 100.941 26.0817 100.072 26.6193C99.2041 27.1569 98.1924 27.4144 97.1737 27.3571C93.685 27.3571 89.5908 24.7477 89.5908 19.2703M101.646 19.0839C101.646 16.8232 100.189 15.26 98.0489 15.26C95.9089 15.26 94.4523 16.8232 94.4523 19.0839C94.4523 21.3446 95.9089 22.9019 98.0489 22.9019C100.189 22.9019 101.646 21.3386 101.646 19.0839Z" fill="#6C54FF"/>
<path d="M109.643 28.4872H114.402C114.876 29.5394 115.703 29.9542 117.226 29.9542C119.324 29.9542 120.223 28.9682 120.223 26.5812V25.0059C119.81 25.6661 119.234 26.2072 118.549 26.5762C117.865 26.9451 117.097 27.1292 116.321 27.1103C113.018 27.1103 109.499 24.8797 109.499 19.1197V11.2373H114.276V19.1317C114.276 21.6149 115.475 22.6611 117.274 22.6611C119.072 22.6611 120.271 21.5488 120.271 19.1317V11.2373H125.03V26.4189C125.03 31.8903 121.542 34.0908 117.238 34.0908C113.527 34.0908 110.446 32.3713 109.655 28.4872" fill="#6C54FF"/>
<path d="M26.3156 6.29535C25.7255 6.67192 25.0282 6.84308 24.3314 6.78236C23.7831 6.72526 23.2582 6.52993 22.8054 6.21455C22.3526 5.89916 21.9868 5.47399 21.7419 4.97861C21.5426 4.58831 21.4281 4.15999 21.4062 3.722C21.4091 3.68012 21.3974 3.63853 21.373 3.60442C21.3486 3.5703 21.3131 3.54579 21.2726 3.5351C21.2321 3.52442 21.1892 3.52823 21.1512 3.54588C21.1132 3.56354 21.0826 3.59393 21.0645 3.63181C19.566 6.39756 14.7705 15.3863 14.7705 15.3863C14.7705 15.3863 14.4828 16.0296 14.1711 16.5888L7.99685 4.56375C7.3703 3.32397 6.29594 2.37058 4.99273 1.89799C3.68952 1.4254 2.25563 1.4692 0.983503 2.02046L-0.0175781 2.44735L7.28356 17.19C7.22695 17.1172 7.17489 17.0409 7.1277 16.9615L10.8982 24.5674C11.4976 25.7699 12.3908 26.9724 13.8953 26.9724H14.3748C14.5517 26.9715 14.7282 26.9555 14.9023 26.9243C15.2327 26.8843 15.5512 26.7758 15.8375 26.6056C16.5043 26.2415 17.0173 25.6478 17.2821 24.9341L26.5374 6.5599C26.5556 6.52415 26.5617 6.48346 26.555 6.4439C26.5483 6.40433 26.529 6.368 26.5001 6.3403C26.4711 6.31261 26.4341 6.29503 26.3943 6.29018C26.3546 6.28533 26.3143 6.29347 26.2796 6.31339" fill="#6C54FF"/>
<path d="M27.9581 2.75989C27.9581 3.30691 27.7964 3.84164 27.4934 4.29646C27.1904 4.75129 26.7598 5.10578 26.256 5.31512C25.7521 5.52445 25.1977 5.57922 24.6628 5.4725C24.1279 5.36579 23.6366 5.10237 23.251 4.71558C22.8654 4.32878 22.6027 3.83597 22.4964 3.29946C22.39 2.76296 22.4445 2.20686 22.6532 1.70149C22.8619 1.19611 23.2154 0.764159 23.6688 0.460254C24.1223 0.156349 24.6554 -0.00585937 25.2008 -0.00585938C25.9321 -0.00585937 26.6334 0.285532 27.1505 0.804211C27.6676 1.32289 27.9581 2.02637 27.9581 2.75989Z" fill="#6C54FF"/>
</g>
<mask id="path-8-outside-1_3469_36410" maskUnits="userSpaceOnUse" x="78" y="37.7144" width="47" height="13" fill="black">
<rect fill="white" x="78" y="37.7144" width="47" height="13"/>
<path d="M84.8337 39.3933C87.325 39.3933 89.058 40.6312 89.058 43.0296C89.058 43.3855 89.0271 43.7569 88.9497 44.1592L87.8665 49.7144H86.2727L86.8917 46.5113H81.2282L80.6093 49.7144H79.0464L80.2998 43.3236C80.7795 40.8788 82.3888 39.3933 84.8337 39.3933ZM81.5068 45.0567H87.1857L87.3868 44.0045C87.4487 43.6795 87.4642 43.4165 87.4642 43.1998C87.4642 41.7608 86.5667 40.8478 84.7563 40.8478C83.147 40.8478 82.1412 41.8072 81.8162 43.4629L81.5068 45.0567ZM93.6364 49.9155C91.47 49.9155 89.7834 48.5848 89.7834 46.2637C89.7834 43.8188 91.6712 41.8691 94.1006 41.8691C95.5242 41.8691 96.6073 42.5499 97.0251 43.7105L98 38.7279H99.501L98.0309 46.2327C97.5822 48.5383 95.8337 49.9155 93.6364 49.9155ZM93.6828 48.5538C95.4313 48.5538 96.6073 47.1612 96.6073 45.5828C96.6073 44.1902 95.6789 43.2308 94.2089 43.2308C92.4913 43.2308 91.2843 44.5306 91.2843 46.1554C91.2843 47.5635 92.1973 48.5538 93.6828 48.5538ZM108.606 41.8536C110.231 41.8536 111.453 42.7975 111.453 44.608C111.453 44.8865 111.422 45.2579 111.36 45.5674L110.555 49.7144H109.055L109.875 45.4745C109.921 45.2424 109.937 44.9948 109.937 44.8556C109.937 43.7724 109.24 43.2308 108.312 43.2308C107.352 43.2308 106.563 43.8188 106.316 45.1186L105.434 49.7144H103.948L104.768 45.459C104.815 45.2269 104.83 45.0567 104.83 44.8865C104.83 43.7724 104.087 43.2308 103.159 43.2308C102.215 43.2308 101.457 43.8033 101.209 45.1031L100.312 49.7144H98.8263L99.7392 44.9639C100.142 42.8439 101.519 41.8691 103.113 41.8691C104.35 41.8691 105.341 42.4107 105.774 43.401C106.408 42.3797 107.399 41.8536 108.606 41.8536ZM114.865 40.8633C114.293 40.8633 113.921 40.4764 113.921 39.9349C113.921 39.2695 114.463 38.8053 115.066 38.8053C115.639 38.8053 115.995 39.1921 115.995 39.7028C115.995 40.3527 115.469 40.8633 114.865 40.8633ZM112.312 49.7144L113.798 42.0703H115.268L113.782 49.7144H112.312ZM121.62 49.7144L122.347 45.9233C122.378 45.7685 122.425 45.459 122.425 45.1805C122.425 43.9426 121.589 43.2308 120.351 43.2308C119.098 43.2308 118.169 43.9735 117.875 45.49L117.04 49.7144H115.554L116.405 45.3507C116.854 43.0451 118.355 41.8691 120.413 41.8691C122.394 41.8691 123.926 42.9677 123.926 45.0412C123.926 45.3971 123.879 45.7685 123.817 46.078L123.106 49.7144H121.62Z"/>
</mask>
<path d="M84.8337 39.3933C87.325 39.3933 89.058 40.6312 89.058 43.0296C89.058 43.3855 89.0271 43.7569 88.9497 44.1592L87.8665 49.7144H86.2727L86.8917 46.5113H81.2282L80.6093 49.7144H79.0464L80.2998 43.3236C80.7795 40.8788 82.3888 39.3933 84.8337 39.3933ZM81.5068 45.0567H87.1857L87.3868 44.0045C87.4487 43.6795 87.4642 43.4165 87.4642 43.1998C87.4642 41.7608 86.5667 40.8478 84.7563 40.8478C83.147 40.8478 82.1412 41.8072 81.8162 43.4629L81.5068 45.0567ZM93.6364 49.9155C91.47 49.9155 89.7834 48.5848 89.7834 46.2637C89.7834 43.8188 91.6712 41.8691 94.1006 41.8691C95.5242 41.8691 96.6073 42.5499 97.0251 43.7105L98 38.7279H99.501L98.0309 46.2327C97.5822 48.5383 95.8337 49.9155 93.6364 49.9155ZM93.6828 48.5538C95.4313 48.5538 96.6073 47.1612 96.6073 45.5828C96.6073 44.1902 95.6789 43.2308 94.2089 43.2308C92.4913 43.2308 91.2843 44.5306 91.2843 46.1554C91.2843 47.5635 92.1973 48.5538 93.6828 48.5538ZM108.606 41.8536C110.231 41.8536 111.453 42.7975 111.453 44.608C111.453 44.8865 111.422 45.2579 111.36 45.5674L110.555 49.7144H109.055L109.875 45.4745C109.921 45.2424 109.937 44.9948 109.937 44.8556C109.937 43.7724 109.24 43.2308 108.312 43.2308C107.352 43.2308 106.563 43.8188 106.316 45.1186L105.434 49.7144H103.948L104.768 45.459C104.815 45.2269 104.83 45.0567 104.83 44.8865C104.83 43.7724 104.087 43.2308 103.159 43.2308C102.215 43.2308 101.457 43.8033 101.209 45.1031L100.312 49.7144H98.8263L99.7392 44.9639C100.142 42.8439 101.519 41.8691 103.113 41.8691C104.35 41.8691 105.341 42.4107 105.774 43.401C106.408 42.3797 107.399 41.8536 108.606 41.8536ZM114.865 40.8633C114.293 40.8633 113.921 40.4764 113.921 39.9349C113.921 39.2695 114.463 38.8053 115.066 38.8053C115.639 38.8053 115.995 39.1921 115.995 39.7028C115.995 40.3527 115.469 40.8633 114.865 40.8633ZM112.312 49.7144L113.798 42.0703H115.268L113.782 49.7144H112.312ZM121.62 49.7144L122.347 45.9233C122.378 45.7685 122.425 45.459 122.425 45.1805C122.425 43.9426 121.589 43.2308 120.351 43.2308C119.098 43.2308 118.169 43.9735 117.875 45.49L117.04 49.7144H115.554L116.405 45.3507C116.854 43.0451 118.355 41.8691 120.413 41.8691C122.394 41.8691 123.926 42.9677 123.926 45.0412C123.926 45.3971 123.879 45.7685 123.817 46.078L123.106 49.7144H121.62Z" fill="#6C54FF"/>
<path d="M88.9497 44.1592L89.1396 44.1962L89.1397 44.1958L88.9497 44.1592ZM87.8665 49.7144V49.9078H88.0259L88.0564 49.7514L87.8665 49.7144ZM86.2727 49.7144L86.0828 49.6777L86.0383 49.9078H86.2727V49.7144ZM86.8917 46.5113L87.0816 46.548L87.1261 46.3178H86.8917V46.5113ZM81.2282 46.5113V46.3178H81.0686L81.0383 46.4746L81.2282 46.5113ZM80.6093 49.7144V49.9078H80.7689L80.7992 49.7511L80.6093 49.7144ZM79.0464 49.7144L78.8566 49.6771L78.8114 49.9078H79.0464V49.7144ZM80.2998 43.3236L80.11 43.2864L80.11 43.2864L80.2998 43.3236ZM81.5068 45.0567L81.3169 45.0198L81.2722 45.2501H81.5068V45.0567ZM87.1857 45.0567V45.2501H87.3456L87.3757 45.093L87.1857 45.0567ZM87.3868 44.0045L87.5768 44.0408L87.5769 44.0407L87.3868 44.0045ZM81.8162 43.4629L81.6264 43.4257L81.6264 43.426L81.8162 43.4629ZM84.8337 39.5867C86.0499 39.5867 87.0577 39.8891 87.7576 40.4617C88.4521 41.03 88.8646 41.8813 88.8646 43.0296H89.2515C89.2515 41.7796 88.7974 40.8127 88.0026 40.1623C87.2131 39.5164 86.1087 39.1998 84.8337 39.1998V39.5867ZM88.8646 43.0296C88.8646 43.3739 88.8347 43.733 88.7598 44.1227L89.1397 44.1958C89.2195 43.7808 89.2515 43.3971 89.2515 43.0296H88.8646ZM88.7599 44.1222L87.6767 49.6773L88.0564 49.7514L89.1396 44.1962L88.7599 44.1222ZM87.8665 49.5209H86.2727V49.9078H87.8665V49.5209ZM86.4626 49.7511L87.0816 46.548L86.7018 46.4746L86.0828 49.6777L86.4626 49.7511ZM86.8917 46.3178H81.2282V46.7047H86.8917V46.3178ZM81.0383 46.4746L80.4194 49.6777L80.7992 49.7511L81.4182 46.548L81.0383 46.4746ZM80.6093 49.5209H79.0464V49.9078H80.6093V49.5209ZM79.2362 49.7516L80.4896 43.3609L80.11 43.2864L78.8566 49.6771L79.2362 49.7516ZM80.4896 43.3609C80.7231 42.171 81.2281 41.2299 81.9577 40.5867C82.6859 39.9447 83.6522 39.5867 84.8337 39.5867V39.1998C83.5702 39.1998 82.5094 39.5846 81.7019 40.2965C80.8957 41.0073 80.3562 42.0314 80.11 43.2864L80.4896 43.3609ZM81.5068 45.2501H87.1857V44.8633H81.5068V45.2501ZM87.3757 45.093L87.5768 44.0408L87.1969 43.9682L86.9957 45.0204L87.3757 45.093ZM87.5769 44.0407C87.6414 43.702 87.6576 43.4266 87.6576 43.1998H87.2708C87.2708 43.4063 87.2561 43.6571 87.1968 43.9683L87.5769 44.0407ZM87.6576 43.1998C87.6576 42.4391 87.4191 41.7937 86.919 41.3408C86.4216 40.8904 85.6919 40.6544 84.7563 40.6544V41.0412C85.6311 41.0412 86.2554 41.2618 86.6593 41.6276C87.0605 41.9909 87.2708 42.5215 87.2708 43.1998H87.6576ZM84.7563 40.6544C83.9112 40.6544 83.2088 40.9074 82.6748 41.3911C82.1429 41.873 81.7946 42.5686 81.6264 43.4257L82.0061 43.5002C82.1628 42.7015 82.48 42.0896 82.9345 41.6778C83.3869 41.268 83.9921 41.0412 84.7563 41.0412V40.6544ZM81.6264 43.426L81.3169 45.0198L81.6966 45.0936L82.0061 43.4998L81.6264 43.426ZM97.0251 43.7105L96.8432 43.776L97.0805 44.4352L97.215 43.7476L97.0251 43.7105ZM98 38.7279V38.5345H97.8408L97.8102 38.6908L98 38.7279ZM99.501 38.7279L99.6908 38.7651L99.736 38.5345H99.501V38.7279ZM98.0309 46.2327L97.8411 46.1956L97.8411 46.1958L98.0309 46.2327ZM93.6364 49.7221C92.5919 49.7221 91.6776 49.4015 91.0268 48.8162C90.3786 48.2332 89.9768 47.3742 89.9768 46.2637H89.5899C89.5899 47.4742 90.0314 48.4412 90.7681 49.1038C91.5023 49.7641 92.5145 50.1089 93.6364 50.1089V49.7221ZM89.9768 46.2637C89.9768 43.9216 91.782 42.0625 94.1006 42.0625V41.6757C91.5603 41.6757 89.5899 43.716 89.5899 46.2637H89.9768ZM94.1006 42.0625C95.4592 42.0625 96.4582 42.7067 96.8432 43.776L97.2071 43.645C96.7565 42.3931 95.5891 41.6757 94.1006 41.6757V42.0625ZM97.215 43.7476L98.1898 38.765L97.8102 38.6908L96.8353 43.6733L97.215 43.7476ZM98 38.9213H99.501V38.5345H98V38.9213ZM99.3112 38.6907L97.8411 46.1956L98.2208 46.2699L99.6908 38.7651L99.3112 38.6907ZM97.8411 46.1958C97.41 48.4104 95.7412 49.7221 93.6364 49.7221V50.1089C95.9261 50.1089 97.7544 48.6663 98.2208 46.2697L97.8411 46.1958ZM93.6828 48.7472C95.5493 48.7472 96.8008 47.2565 96.8008 45.5828H96.4139C96.4139 47.0658 95.3134 48.3604 93.6828 48.3604V48.7472ZM96.8008 45.5828C96.8008 44.8427 96.5532 44.2027 96.0958 43.7475C95.6383 43.2921 94.9869 43.0374 94.2089 43.0374V43.4242C94.9009 43.4242 95.4487 43.6492 95.8229 44.0217C96.1973 44.3942 96.4139 44.9303 96.4139 45.5828H96.8008ZM94.2089 43.0374C92.3804 43.0374 91.0909 44.4279 91.0909 46.1554H91.4778C91.4778 44.6334 92.6021 43.4242 94.2089 43.4242V43.0374ZM91.0909 46.1554C91.0909 46.9016 91.3335 47.5525 91.7882 48.0178C92.2435 48.4838 92.8957 48.7472 93.6828 48.7472V48.3604C92.9844 48.3604 92.4373 48.1286 92.0648 47.7475C91.6917 47.3656 91.4778 46.8173 91.4778 46.1554H91.0909ZM111.36 45.5674L111.17 45.5294L111.17 45.5305L111.36 45.5674ZM110.555 49.7144V49.9078H110.715L110.745 49.7512L110.555 49.7144ZM109.055 49.7144L108.865 49.6776L108.82 49.9078H109.055V49.7144ZM109.875 45.4745L109.685 45.4366L109.685 45.4378L109.875 45.4745ZM106.316 45.1186L106.506 45.1551L106.506 45.1548L106.316 45.1186ZM105.434 49.7144V49.9078H105.593L105.624 49.7508L105.434 49.7144ZM103.948 49.7144L103.758 49.6778L103.714 49.9078H103.948V49.7144ZM104.768 45.459L104.579 45.4211L104.578 45.4224L104.768 45.459ZM101.209 45.1031L101.399 45.1401L101.399 45.1393L101.209 45.1031ZM100.312 49.7144V49.9078H100.471L100.502 49.7513L100.312 49.7144ZM98.8263 49.7144L98.6363 49.6779L98.5921 49.9078H98.8263V49.7144ZM99.7392 44.9639L99.9292 45.0004L99.9293 44.9999L99.7392 44.9639ZM105.774 43.401L105.597 43.4785L105.744 43.8155L105.938 43.5031L105.774 43.401ZM108.606 42.047C109.382 42.047 110.043 42.2723 110.509 42.695C110.971 43.1153 111.26 43.7488 111.26 44.608H111.646C111.646 43.6567 111.324 42.913 110.769 42.4087C110.217 41.9069 109.454 41.6602 108.606 41.6602V42.047ZM111.26 44.608C111.26 44.8754 111.23 45.2339 111.17 45.5294L111.55 45.6053C111.614 45.2819 111.646 44.8977 111.646 44.608H111.26ZM111.17 45.5305L110.366 49.6775L110.745 49.7512L111.55 45.6042L111.17 45.5305ZM110.555 49.5209H109.055V49.9078H110.555V49.5209ZM109.244 49.7511L110.065 45.5112L109.685 45.4378L108.865 49.6776L109.244 49.7511ZM110.064 45.5124C110.114 45.2655 110.13 45.0049 110.13 44.8556H109.743C109.743 44.9847 109.728 45.2193 109.685 45.4366L110.064 45.5124ZM110.13 44.8556C110.13 44.2708 109.941 43.8095 109.604 43.4956C109.27 43.1837 108.813 43.0374 108.312 43.0374V43.4242C108.739 43.4242 109.094 43.5487 109.34 43.7784C109.584 44.0061 109.743 44.3572 109.743 44.8556H110.13ZM108.312 43.0374C107.791 43.0374 107.306 43.1977 106.918 43.5427C106.531 43.8868 106.255 44.4009 106.126 45.0824L106.506 45.1548C106.623 44.5366 106.866 44.1067 107.175 43.8318C107.484 43.5579 107.873 43.4242 108.312 43.4242V43.0374ZM106.126 45.0822L105.244 49.6779L105.624 49.7508L106.506 45.1551L106.126 45.0822ZM105.434 49.5209H103.948V49.9078H105.434V49.5209ZM104.138 49.751L104.958 45.4956L104.578 45.4224L103.758 49.6778L104.138 49.751ZM104.958 45.497C105.007 45.2537 105.024 45.0707 105.024 44.8865H104.637C104.637 45.0427 104.623 45.2002 104.579 45.4211L104.958 45.497ZM105.024 44.8865C105.024 44.284 104.821 43.8148 104.473 43.4978C104.128 43.1835 103.659 43.0374 103.159 43.0374V43.4242C103.587 43.4242 103.954 43.5489 104.213 43.7839C104.468 44.0162 104.637 44.3749 104.637 44.8865H105.024ZM103.159 43.0374C102.646 43.0374 102.172 43.1938 101.793 43.536C101.416 43.8768 101.149 44.3871 101.019 45.0669L101.399 45.1393C101.517 44.5194 101.753 44.0935 102.053 43.8231C102.351 43.5541 102.728 43.4242 103.159 43.4242V43.0374ZM101.019 45.0662L100.122 49.6774L100.502 49.7513L101.399 45.1401L101.019 45.0662ZM100.312 49.5209H98.8263V49.9078H100.312V49.5209ZM99.0162 49.7509L99.9292 45.0004L99.5493 44.9274L98.6363 49.6779L99.0162 49.7509ZM99.9293 44.9999C100.124 43.9749 100.55 43.2435 101.105 42.7684C101.659 42.2933 102.356 42.0625 103.113 42.0625V41.6757C102.275 41.6757 101.486 41.9323 100.853 42.4746C100.22 43.0169 99.757 43.8329 99.5492 44.9278L99.9293 44.9999ZM103.113 42.0625C104.294 42.0625 105.202 42.5755 105.597 43.4785L105.951 43.3235C105.48 42.2459 104.407 41.6757 103.113 41.6757V42.0625ZM105.938 43.5031C106.536 42.5412 107.463 42.047 108.606 42.047V41.6602C107.335 41.6602 106.281 42.2183 105.61 43.2989L105.938 43.5031ZM112.312 49.7144L112.122 49.6775L112.077 49.9078H112.312V49.7144ZM113.798 42.0703V41.8768H113.638L113.608 42.0334L113.798 42.0703ZM115.268 42.0703L115.457 42.1072L115.502 41.8768H115.268V42.0703ZM113.782 49.7144V49.9078H113.941L113.972 49.7513L113.782 49.7144ZM114.865 40.6699C114.624 40.6699 114.439 40.5892 114.315 40.4654C114.191 40.3414 114.115 40.1605 114.115 39.9349H113.728C113.728 40.2508 113.837 40.5341 114.042 40.7389C114.247 40.944 114.534 41.0567 114.865 41.0567V40.6699ZM114.115 39.9349C114.115 39.3865 114.559 38.9987 115.066 38.9987V38.6118C114.367 38.6118 113.728 39.1525 113.728 39.9349H114.115ZM115.066 38.9987C115.308 38.9987 115.488 39.0793 115.609 39.1993C115.729 39.3198 115.801 39.4931 115.801 39.7028H116.188C116.188 39.4017 116.083 39.1263 115.882 38.9257C115.681 38.7247 115.398 38.6118 115.066 38.6118V38.9987ZM115.801 39.7028C115.801 40.2475 115.36 40.6699 114.865 40.6699V41.0567C115.577 41.0567 116.188 40.4578 116.188 39.7028H115.801ZM112.502 49.7513L113.987 42.1072L113.608 42.0334L112.122 49.6775L112.502 49.7513ZM113.798 42.2637H115.268V41.8768H113.798V42.2637ZM115.078 42.0334L113.592 49.6775L113.972 49.7513L115.457 42.1072L115.078 42.0334ZM113.782 49.5209H112.312V49.9078H113.782V49.5209ZM121.62 49.7144L121.43 49.6779L121.386 49.9078H121.62V49.7144ZM122.347 45.9233L122.158 45.8853L122.157 45.8868L122.347 45.9233ZM117.875 45.49L118.065 45.5275L118.065 45.5268L117.875 45.49ZM117.04 49.7144V49.9078H117.199L117.23 49.7519L117.04 49.7144ZM115.554 49.7144L115.365 49.6773L115.32 49.9078H115.554V49.7144ZM116.405 45.3507L116.595 45.3877L116.595 45.3877L116.405 45.3507ZM123.817 46.078L123.628 46.0401L123.628 46.0408L123.817 46.078ZM123.106 49.7144V49.9078H123.265L123.295 49.7515L123.106 49.7144ZM121.81 49.7508L122.537 45.9597L122.157 45.8868L121.43 49.6779L121.81 49.7508ZM122.537 45.9612C122.57 45.7991 122.618 45.4761 122.618 45.1805H122.231C122.231 45.442 122.187 45.738 122.158 45.8853L122.537 45.9612ZM122.618 45.1805C122.618 44.5159 122.392 43.9735 121.983 43.5987C121.575 43.226 121.006 43.0374 120.351 43.0374V43.4242C120.934 43.4242 121.402 43.5915 121.722 43.8841C122.039 44.1748 122.231 44.6072 122.231 45.1805H122.618ZM120.351 43.0374C119.685 43.0374 119.092 43.2357 118.626 43.6466C118.161 44.0566 117.839 44.6637 117.686 45.4532L118.065 45.5268C118.206 44.7998 118.495 44.2773 118.882 43.9368C119.267 43.5973 119.764 43.4242 120.351 43.4242V43.0374ZM117.686 45.4525L116.85 49.6768L117.23 49.7519L118.065 45.5275L117.686 45.4525ZM117.04 49.5209H115.554V49.9078H117.04V49.5209ZM115.744 49.7514L116.595 45.3877L116.216 45.3137L115.365 49.6773L115.744 49.7514ZM116.595 45.3877C116.813 44.2688 117.282 43.4412 117.931 42.893C118.579 42.3451 119.422 42.0625 120.413 42.0625V41.6757C119.346 41.6757 118.41 41.9811 117.681 42.5976C116.952 43.2138 116.447 44.127 116.216 45.3138L116.595 45.3877ZM120.413 42.0625C121.37 42.0625 122.2 42.3278 122.787 42.8252C123.371 43.3192 123.732 44.0563 123.732 45.0412H124.119C124.119 43.9527 123.715 43.1038 123.037 42.53C122.364 41.9597 121.437 41.6757 120.413 41.6757V42.0625ZM123.732 45.0412C123.732 45.3818 123.688 45.7402 123.628 46.0401L124.007 46.1159C124.071 45.7968 124.119 45.4125 124.119 45.0412H123.732ZM123.628 46.0408L122.916 49.6772L123.295 49.7515L124.007 46.1151L123.628 46.0408ZM123.106 49.5209H121.62V49.9078H123.106V49.5209Z" fill="#6C54FF" mask="url(#path-8-outside-1_3469_36410)"/>
<defs>
<clipPath id="clip0_3469_36410">
<rect width="125" height="34.0909" fill="white"/>
</clipPath>
</defs>
</svg>
