<svg width="25" height="25" viewBox="0 0 25 25" fill="none" xmlns="http://www.w3.org/2000/svg">
<path d="M2.5 22.5L2.50042 18.7496C2.50065 16.6787 4.17952 15 6.25042 15H13.125M15 6.25C15 8.32107 13.3211 10 11.25 10C9.17893 10 7.5 8.32107 7.5 6.25C7.5 4.17893 9.17893 2.5 11.25 2.5C13.3211 2.5 15 4.17893 15 6.25Z" stroke="#3D3E40" stroke-width="2" stroke-linecap="round" stroke-linejoin="round"/>
<path fill-rule="evenodd" clip-rule="evenodd" d="M19.8382 14.1581C19.6244 13.2806 18.3756 13.2806 18.1618 14.1581C18.1299 14.29 18.0673 14.4125 17.9792 14.5156C17.891 14.6187 17.7797 14.6995 17.6544 14.7515C17.529 14.8034 17.3932 14.8251 17.258 14.8146C17.1227 14.8042 16.9918 14.762 16.8759 14.6914C16.1042 14.2211 15.221 15.1043 15.6913 15.876C15.995 16.3744 15.7256 17.0247 15.1586 17.1625C14.2805 17.3757 14.2805 18.625 15.1586 18.8376C15.2905 18.8696 15.413 18.9323 15.5161 19.0205C15.6192 19.1088 15.7 19.2201 15.7519 19.3455C15.8038 19.4709 15.8254 19.6068 15.8148 19.7421C15.8043 19.8774 15.762 20.0083 15.6913 20.1241C15.221 20.8959 16.1042 21.779 16.8759 21.3087C16.9918 21.2381 17.1227 21.1957 17.258 21.1852C17.3933 21.1746 17.5292 21.1962 17.6546 21.2481C17.7799 21.3001 17.8913 21.3809 17.9796 21.484C18.0678 21.5871 18.1305 21.7095 18.1624 21.8414C18.3756 22.7195 19.625 22.7195 19.8376 21.8414C19.8697 21.7096 19.9324 21.5872 20.0206 21.4842C20.1089 21.3812 20.2202 21.3004 20.3456 21.2485C20.4709 21.1966 20.6068 21.175 20.742 21.1855C20.8773 21.1959 21.0082 21.2382 21.1241 21.3087C21.8958 21.779 22.779 20.8959 22.3087 20.1241C22.2382 20.0082 22.1959 19.8773 22.1855 19.7421C22.175 19.6068 22.1966 19.471 22.2485 19.3456C22.3004 19.2203 22.3811 19.109 22.4842 19.0207C22.5872 18.9324 22.7096 18.8697 22.8414 18.8376C23.7195 18.6245 23.7195 17.3751 22.8414 17.1625C22.7095 17.1305 22.587 17.0679 22.4839 16.9796C22.3808 16.8914 22.3 16.78 22.2481 16.6547C22.1962 16.5293 22.1746 16.3934 22.1852 16.2581C22.1957 16.1228 22.238 15.9919 22.3087 15.876C22.779 15.1043 21.8958 14.2211 21.1241 14.6914C21.0082 14.7621 20.8773 14.8044 20.742 14.815C20.6067 14.8255 20.4708 14.8039 20.3454 14.752C20.2201 14.7001 20.1087 14.6193 20.0204 14.5162C19.9322 14.4131 19.8701 14.29 19.8382 14.1581Z" stroke="#3D3E40" stroke-width="1.5"/>
<rect x="17.5" y="16.5" width="3" height="3" rx="1.5" stroke="#3D3E40"/>
</svg>
