<svg width="25" height="25" viewBox="0 0 25 25" fill="none" xmlns="http://www.w3.org/2000/svg">
<path d="M14.5525 9.36068H4.15248C3.9403 9.36068 3.73682 9.2764 3.58679 9.12637C3.43676 8.97634 3.35248 8.77285 3.35248 8.56068C3.35248 8.34851 3.43676 8.14503 3.58679 7.995C3.73682 7.84497 3.9403 7.76068 4.15248 7.76068H14.5525C14.7647 7.76068 14.9681 7.84497 15.1182 7.995C15.2682 8.14503 15.3525 8.34851 15.3525 8.56068C15.3525 8.77285 15.2682 8.97634 15.1182 9.12637C14.9681 9.2764 14.7647 9.36068 14.5525 9.36068ZM21.7525 9.36068H18.5525C18.3403 9.36068 18.1368 9.2764 17.9868 9.12637C17.8368 8.97634 17.7525 8.77285 17.7525 8.56068C17.7525 8.34851 17.8368 8.14503 17.9868 7.995C18.1368 7.84497 18.3403 7.76068 18.5525 7.76068H21.7525C21.9647 7.76068 22.1681 7.84497 22.3182 7.995C22.4682 8.14503 22.5525 8.34851 22.5525 8.56068C22.5525 8.77285 22.4682 8.97634 22.3182 9.12637C22.1681 9.2764 21.9647 9.36068 21.7525 9.36068Z" fill="#3D3E40" stroke="#3D3E40" stroke-width="0.500911"/>
<path d="M16.5525 11.3604C15.9987 11.3604 15.4573 11.1962 14.9969 10.8885C14.5364 10.5809 14.1775 10.1436 13.9656 9.63192C13.7537 9.12029 13.6982 8.5573 13.8063 8.01415C13.9143 7.47101 14.181 6.9721 14.5726 6.58051C14.9642 6.18892 15.4631 5.92225 16.0062 5.81421C16.5494 5.70617 17.1124 5.76162 17.624 5.97355C18.1356 6.18547 18.5729 6.54435 18.8806 7.00481C19.1883 7.46527 19.3525 8.00662 19.3525 8.56041C19.3525 9.30301 19.0575 10.0152 18.5324 10.5403C18.0073 11.0654 17.2951 11.3604 16.5525 11.3604ZM16.5525 7.36041C16.3151 7.36041 16.0831 7.43079 15.8858 7.56264C15.6885 7.6945 15.5347 7.88192 15.4438 8.10119C15.353 8.32046 15.3292 8.56174 15.3755 8.79452C15.4218 9.02729 15.5361 9.24111 15.704 9.40894C15.8718 9.57676 16.0856 9.69105 16.3184 9.73735C16.5511 9.78365 16.7924 9.75989 17.0117 9.66906C17.231 9.57824 17.4184 9.42443 17.5502 9.22709C17.6821 9.02975 17.7525 8.79775 17.7525 8.56041C17.7525 8.24215 17.6261 7.93692 17.401 7.71188C17.176 7.48684 16.8707 7.36041 16.5525 7.36041ZM21.7525 17.3604H11.3525C11.1403 17.3604 10.9368 17.2761 10.7868 17.1261C10.6368 16.9761 10.5525 16.7726 10.5525 16.5604C10.5525 16.3482 10.6368 16.1447 10.7868 15.9947C10.9368 15.8447 11.1403 15.7604 11.3525 15.7604H21.7525C21.9647 15.7604 22.1681 15.8447 22.3182 15.9947C22.4682 16.1447 22.5525 16.3482 22.5525 16.5604C22.5525 16.7726 22.4682 16.9761 22.3182 17.1261C22.1681 17.2761 21.9647 17.3604 21.7525 17.3604ZM7.35248 17.3604H4.15248C3.9403 17.3604 3.73682 17.2761 3.58679 17.1261C3.43676 16.9761 3.35248 16.7726 3.35248 16.5604C3.35248 16.3482 3.43676 16.1447 3.58679 15.9947C3.73682 15.8447 3.9403 15.7604 4.15248 15.7604H7.35248C7.56465 15.7604 7.76813 15.8447 7.91816 15.9947C8.06819 16.1447 8.15248 16.3482 8.15248 16.5604C8.15248 16.7726 8.06819 16.9761 7.91816 17.1261C7.76813 17.2761 7.56465 17.3604 7.35248 17.3604Z" fill="#3D3E40" stroke="#3D3E40" stroke-width="0.500911"/>
<path d="M9.35396 19.3607C8.80017 19.3607 8.25882 19.1964 7.79836 18.8888C7.3379 18.5811 6.97902 18.1438 6.76709 17.6322C6.55517 17.1205 6.49972 16.5575 6.60776 16.0144C6.7158 15.4713 6.98247 14.9723 7.37406 14.5808C7.76564 14.1892 8.26456 13.9225 8.8077 13.8145C9.35085 13.7064 9.91384 13.7619 10.4255 13.9738C10.9371 14.1857 11.3744 14.5446 11.6821 15.0051C11.9897 15.4655 12.154 16.0069 12.154 16.5607C12.154 17.3033 11.859 18.0154 11.3339 18.5406C10.8088 19.0657 10.0966 19.3607 9.35396 19.3607ZM9.35396 15.3607C9.11662 15.3607 8.88461 15.431 8.68727 15.5629C8.48993 15.6947 8.33613 15.8822 8.2453 16.1014C8.15448 16.3207 8.13071 16.562 8.17701 16.7948C8.22332 17.0275 8.33761 17.2414 8.50543 17.4092C8.67325 17.577 8.88707 17.6913 9.11985 17.7376C9.35262 17.7839 9.59391 17.7601 9.81318 17.6693C10.0324 17.5785 10.2199 17.4247 10.3517 17.2273C10.4836 17.03 10.554 16.798 10.554 16.5607C10.554 16.2424 10.4275 15.9372 10.2025 15.7121C9.97744 15.4871 9.67222 15.3607 9.35396 15.3607Z" fill="#3D3E40" stroke="#3D3E40" stroke-width="0.500911"/>
</svg>
