<svg width="33" height="33" viewBox="0 0 33 33" fill="none" xmlns="http://www.w3.org/2000/svg">
<path d="M4.08002 29.2168L4.08056 24.4163C4.08085 21.7656 6.2298 19.6168 8.88056 19.6168H18.4798M24.08 3.61685C26.0217 4.70522 27.28 6.45002 27.28 8.41685C27.28 10.3837 26.0217 12.1285 24.08 13.2169M20.08 8.41685C20.08 11.0678 17.931 13.2169 15.28 13.2169C12.629 13.2169 10.48 11.0678 10.48 8.41685C10.48 5.76588 12.629 3.61685 15.28 3.61685C17.931 3.61685 20.08 5.76588 20.08 8.41685Z" stroke="white" stroke-width="2.55" stroke-linecap="round" stroke-linejoin="round"/>
<path d="M29.74 23.5875L27.1944 21.0419M27.1944 21.0419L24.6488 18.4963M27.1944 21.0419L24.6489 23.5873M27.1944 21.0419L29.7401 18.4962" stroke="white" stroke-width="2.55" stroke-linecap="round"/>
</svg>
