<svg width="33" height="33" viewBox="0 0 33 33" fill="none" xmlns="http://www.w3.org/2000/svg">
<path d="M4.08002 29.2168L4.08056 24.4163C4.08085 21.7656 6.2298 19.6168 8.88056 19.6168H18.4798M24.08 3.61685C26.0217 4.70522 27.28 6.45002 27.28 8.41685C27.28 10.3837 26.0217 12.1285 24.08 13.2169M20.08 8.41685C20.08 11.0678 17.931 13.2169 15.28 13.2169C12.629 13.2169 10.48 11.0678 10.48 8.41685C10.48 5.76588 12.629 3.61685 15.28 3.61685C17.931 3.61685 20.08 5.76588 20.08 8.41685Z" stroke="white" stroke-width="2.55" stroke-linecap="round" stroke-linejoin="round"/>
<path d="M15.631 29.3875L13.507 26.5975V29.3875H11.968V23.0695H13.507V25.8415L15.613 23.0695H17.422L14.974 26.1655L17.512 29.3875H15.631ZM19.9354 27.2995L17.7484 23.0695H19.4944L20.7184 25.7155L21.9334 23.0695H23.6614L21.4744 27.2995V29.3875H19.9354V27.2995ZM24.0205 26.2195C24.0205 24.3295 25.3345 22.9975 27.1975 22.9975C28.7005 22.9975 29.8345 23.8435 30.1945 25.2115H28.5025C28.2415 24.6715 27.7645 24.4015 27.1795 24.4015C26.2345 24.4015 25.5865 25.1035 25.5865 26.2195C25.5865 27.3355 26.2345 28.0375 27.1795 28.0375C27.7645 28.0375 28.2415 27.7675 28.5025 27.2275H30.1945C29.8345 28.5955 28.7005 29.4325 27.1975 29.4325C25.3345 29.4325 24.0205 28.1095 24.0205 26.2195Z" fill="white"/>
</svg>
