<svg width="156" height="42" viewBox="0 0 156 42" fill="none" xmlns="http://www.w3.org/2000/svg">
<path d="M29.8599 23.7657C29.8599 17.5371 34.2197 13.3379 40.4339 13.3379C46.6482 13.3379 50.8434 17.3816 50.8434 23.7064V33.2159H45.3694V30.0016C44.8644 31.1591 44.0126 32.1349 42.9292 32.7972C41.8459 33.4595 40.5833 33.7763 39.3122 33.7047C34.96 33.7047 29.8524 30.4904 29.8524 23.7435M44.8983 23.5139C44.8983 20.7292 43.0737 18.8036 40.4115 18.8036C37.7493 18.8036 35.9246 20.7292 35.9246 23.5139C35.9246 26.2986 37.7418 28.2168 40.4115 28.2168C43.0812 28.2168 44.8983 26.2912 44.8983 23.5139Z" fill="#6C54FF"/>
<path d="M54.7171 22.3144C54.7171 16.0859 58.3589 13.3382 63.1075 13.3382C64.3754 13.2815 65.6379 13.5342 66.7841 14.074C67.9303 14.6138 68.925 15.4242 69.6808 16.434C70.4338 15.4213 71.428 14.6087 72.5749 14.0686C73.7217 13.5285 74.9856 13.2776 76.254 13.3382C81.0026 13.3382 84.6444 16.0859 84.6444 22.3144V33.2163H78.7068V22.3144C78.7068 19.7297 77.4355 18.8262 75.6557 18.8262C73.876 18.8262 72.6645 19.7297 72.6645 22.3144V33.2163H66.727V22.3144C66.727 19.7297 65.4632 18.8262 63.7357 18.8262C62.0083 18.8262 60.6846 19.7297 60.6846 22.3144V33.2163H54.7471L54.7171 22.3144Z" fill="#6C54FF"/>
<path d="M88.5179 23.7287C88.5179 17.2188 92.9525 13.3602 98.9275 13.3602C105.142 13.3602 109.494 17.5594 109.494 23.788C109.494 30.535 104.431 33.7492 99.9969 33.7492C98.9262 33.7957 97.8604 33.5801 96.8939 33.1215C95.9274 32.6629 95.09 31.9755 94.4556 31.12V41.4886H88.5179V23.7287ZM103.474 23.5362C103.474 20.7515 101.649 18.8259 98.9873 18.8259C96.3251 18.8259 94.5004 20.7515 94.5004 23.5362C94.5004 26.3209 96.3176 28.2391 98.9873 28.2391C101.657 28.2391 103.474 26.3135 103.474 23.5362Z" fill="#6C54FF"/>
<path d="M111.79 23.7657C111.79 17.5371 116.142 13.3379 122.356 13.3379C128.571 13.3379 132.766 17.3816 132.766 23.7064V33.2159H127.307V30.0016C126.801 31.1584 125.949 32.1337 124.866 32.7958C123.783 33.458 122.52 33.7752 121.25 33.7047C116.897 33.7047 111.79 30.4904 111.79 23.7435M126.828 23.5139C126.828 20.7292 125.011 18.8036 122.341 18.8036C119.672 18.8036 117.855 20.7292 117.855 23.5139C117.855 26.2986 119.672 28.2168 122.341 28.2168C125.011 28.2168 126.828 26.2912 126.828 23.5139Z" fill="#6C54FF"/>
<path d="M136.804 35.0975H142.741C143.332 36.3936 144.364 36.9046 146.264 36.9046C148.881 36.9046 150.003 35.69 150.003 32.7497V30.8093C149.488 31.6225 148.768 32.289 147.915 32.7435C147.061 33.198 146.103 33.4247 145.134 33.4015C141.014 33.4015 136.624 30.6538 136.624 23.5587V13.8493H142.584V23.5736C142.584 26.6323 144.08 27.921 146.323 27.921C148.567 27.921 150.062 26.5508 150.062 23.5736V13.8493H156V32.5498C156 39.2894 151.648 42 146.279 42C141.65 42 137.806 39.8818 136.819 35.0975" fill="#6C54FF"/>
<path d="M32.8512 7.76127C32.1151 8.22513 31.2452 8.43595 30.3759 8.36117C29.6919 8.29084 29.037 8.05022 28.4722 7.66174C27.9073 7.27325 27.4509 6.74953 27.1454 6.13933C26.8968 5.65856 26.754 5.13096 26.7266 4.59145C26.7302 4.53986 26.7156 4.48864 26.6852 4.44662C26.6548 4.40459 26.6104 4.3744 26.5599 4.36124C26.5094 4.34807 26.4559 4.35277 26.4085 4.37452C26.3611 4.39626 26.3229 4.43369 26.3004 4.48036C24.4309 7.88718 18.4484 18.9593 18.4484 18.9593C18.4484 18.9593 18.0895 19.7518 17.7006 20.4406L9.99818 5.62831C9.21654 4.10116 7.87626 2.9268 6.25047 2.34467C4.62469 1.76254 2.83588 1.81649 1.24887 2.49552L0 3.02135L9.10833 21.1812C9.0377 21.0914 8.97276 20.9974 8.9139 20.8997L13.6176 30.2685C14.3654 31.7497 15.4797 33.2309 17.3567 33.2309H17.9549C18.1755 33.2299 18.3957 33.2101 18.6129 33.1717C19.0251 33.1224 19.4224 32.9888 19.7796 32.7792C20.6114 32.3306 21.2514 31.5994 21.5817 30.7203L33.1279 8.08714C33.1506 8.0431 33.1583 7.99299 33.1499 7.94425C33.1415 7.89552 33.1175 7.85076 33.0813 7.81665C33.0452 7.78253 32.999 7.76087 32.9494 7.7549C32.8999 7.74893 32.8496 7.75895 32.8063 7.78349" fill="#6C54FF"/>
<path d="M34.9003 3.40682C34.9003 4.08062 34.6986 4.7393 34.3206 5.29954C33.9426 5.85979 33.4054 6.29645 32.7769 6.55431C32.1483 6.81216 31.4566 6.87963 30.7893 6.74817C30.122 6.61672 29.5091 6.29225 29.028 5.8158C28.547 5.33935 28.2194 4.73231 28.0866 4.07145C27.9539 3.4106 28.022 2.7256 28.2823 2.10309C28.5427 1.48057 28.9836 0.948498 29.5493 0.574152C30.115 0.199806 30.7801 0 31.4604 0C32.3727 0 33.2477 0.358931 33.8928 0.997834C34.5379 1.63674 34.9003 2.50327 34.9003 3.40682Z" fill="#6C54FF"/>
</svg>
