<svg width="25" height="25" viewBox="0 0 25 25" fill="none" xmlns="http://www.w3.org/2000/svg">
<path d="M16.6931 21.4278L16.6934 18.0802C16.6936 16.231 15.1946 14.7319 13.3455 14.7319H5.84835C3.99946 14.7319 2.50058 16.2306 2.50038 18.0795L2.5 21.4278M22.4997 21.428L22.5 18.0803C22.5001 16.2312 21.0012 14.7321 19.152 14.7321M16.0483 4.22971C16.8704 4.83975 17.4033 5.81772 17.4033 6.92014C17.4033 8.02257 16.8704 9.00054 16.0483 9.61058M13.0144 6.91996C13.0144 8.76899 11.5154 10.2679 9.66639 10.2679C7.81736 10.2679 6.31842 8.76899 6.31842 6.91996C6.31842 5.07093 7.81736 3.57199 9.66639 3.57199C11.5154 3.57199 13.0144 5.07093 13.0144 6.91996Z" stroke="#3D3E40" stroke-width="2" stroke-linecap="round" stroke-linejoin="round"/>
</svg>
