<svg width="32" height="32" viewBox="0 0 32 32" fill="none" xmlns="http://www.w3.org/2000/svg">
<rect width="32" height="32" rx="16" fill="#5A5CE7"/>
<path d="M15.028 19.112L14.222 8.062H17.68L16.874 19.112H15.028ZM15.938 24.208C15.4527 24.208 15.054 24.052 14.742 23.74C14.4473 23.428 14.3 23.0467 14.3 22.596C14.3 22.128 14.4473 21.7293 14.742 21.4C15.054 21.0533 15.4527 20.88 15.938 20.88C16.406 20.88 16.796 21.0533 17.108 21.4C17.4373 21.7293 17.602 22.128 17.602 22.596C17.602 23.0467 17.4373 23.428 17.108 23.74C16.796 24.052 16.406 24.208 15.938 24.208Z" fill="white"/>
</svg>
