<svg width="100" height="100" viewBox="0 0 100 100" fill="none" xmlns="http://www.w3.org/2000/svg">
<path fill-rule="evenodd" clip-rule="evenodd" d="M42.9703 1.5934C45.1654 0.544437 47.5675 0 50.0004 0C52.4333 0 54.8354 0.544437 57.0305 1.5934C58.9656 2.51842 60.7306 4.02845 63.1856 6.11849L63.5756 6.4485C64.7657 7.46352 65.1407 7.77353 65.5207 8.02853C66.4857 8.67855 67.5707 9.12356 68.7057 9.34856C69.1557 9.43856 69.6407 9.48356 71.2008 9.60357L71.7058 9.64357C74.9158 9.89857 77.2359 10.0836 79.2559 10.7936C81.5506 11.6067 83.6347 12.922 85.3562 14.6435C87.0776 16.365 88.3929 18.4491 89.2061 20.7438C89.9161 22.7638 90.0961 25.0839 90.3561 28.294L90.3961 28.799C90.5161 30.359 90.5611 30.849 90.6511 31.294C90.8761 32.434 91.3261 33.5191 91.9711 34.4841C92.2261 34.8591 92.5361 35.2341 93.5511 36.4241L93.8811 36.8141C95.9762 39.2642 97.4812 41.0342 98.4062 42.9643C100.531 47.4144 100.531 52.5845 98.4062 57.0296C97.4862 58.9646 95.9762 60.7296 93.8811 63.1847L93.5511 63.5747C92.9907 64.1948 92.4632 64.8441 91.9711 65.5197C91.3211 66.4847 90.8761 67.5698 90.6511 68.7048C90.5611 69.1548 90.5211 69.6398 90.3961 71.1998L90.3511 71.7049C90.1011 74.9149 89.9161 77.235 89.2011 79.255C88.3916 81.5509 87.0782 83.6364 85.3572 85.3582C83.6362 87.0801 81.5514 88.3946 79.2559 89.2052C77.2359 89.9152 74.9158 90.0952 71.7058 90.3552L71.2008 90.3952C70.3652 90.4363 69.5323 90.5214 68.7057 90.6502C67.5672 90.8753 66.4846 91.324 65.5207 91.9703C64.8437 92.4628 64.1928 92.9902 63.5706 93.5503L63.1856 93.8803C60.7356 95.9754 58.9656 97.4804 57.0355 98.4054C54.8397 99.4551 52.4367 100 50.0029 100C47.5691 100 45.1661 99.4551 42.9703 98.4054C41.0353 97.4854 39.2702 95.9754 36.8152 93.8803C36.6852 93.7702 36.5552 93.6602 36.4252 93.5503C35.8065 92.9901 35.159 92.4627 34.4851 91.9703C33.5203 91.3223 32.4357 90.8735 31.2951 90.6502C30.4685 90.5214 29.6356 90.4363 28.8 90.3952L28.295 90.3502C25.085 90.1002 22.7649 89.9152 20.7449 89.2002C18.4492 88.3904 16.3639 87.0769 14.6421 85.3559C12.9203 83.635 11.6057 81.5504 10.7947 79.255C10.0847 77.235 9.89973 74.9149 9.64472 71.7049L9.60472 71.1998C9.56363 70.3643 9.47851 69.5314 9.34972 68.7048C9.12453 67.5663 8.67588 66.4837 8.0297 65.5197C7.53783 64.8423 7.01042 64.1913 6.44967 63.5697L6.11967 63.1847C4.02963 60.7346 2.51961 58.9646 1.59459 57.0345C0.544853 54.8387 0 52.4357 0 50.0019C0 47.5681 0.544853 45.1651 1.59459 42.9693C2.51961 41.0342 4.02963 39.2692 6.11967 36.8141L6.44967 36.4241C7.01 35.8056 7.5374 35.158 8.0297 34.4841C8.67971 33.5191 9.12472 32.434 9.34972 31.294C9.43972 30.844 9.48472 30.359 9.60472 28.799L9.64472 28.294C9.89973 25.0839 10.0847 22.7638 10.7947 20.7438C11.605 18.4475 12.9194 16.3619 14.6412 14.6401C16.363 12.9182 18.4486 11.6039 20.7449 10.7936C22.7649 10.0836 25.085 9.89857 28.295 9.64357L28.8 9.60357C29.6358 9.56533 30.4688 9.4802 31.2951 9.34856C32.4351 9.12356 33.5201 8.67355 34.4851 8.02853C34.8602 7.77353 35.2352 7.46352 36.4252 6.4485L36.8152 6.11849C39.2652 4.02845 41.0403 2.51842 42.9703 1.5934ZM53.7805 8.38354C52.5986 7.81886 51.3053 7.52578 49.9954 7.52578C48.6855 7.52578 47.3922 7.81886 46.2103 8.38354C45.2853 8.82355 44.3103 9.61857 41.3053 12.1736L41.1553 12.2986C40.1702 13.1386 39.4552 13.7537 38.6702 14.2787C36.8752 15.4787 34.8651 16.3137 32.7451 16.7287C31.8201 16.9137 30.8801 16.9887 29.5851 17.0937L29.3951 17.1087C25.46 17.4237 24.215 17.5537 23.245 17.8937C20.7449 18.7788 18.7749 20.7438 17.8949 23.2488C17.5449 24.2189 17.4199 25.4639 17.1049 29.399L17.0899 29.589C16.9899 30.884 16.9098 31.824 16.7298 32.749C16.3098 34.8691 15.4798 36.8791 14.2798 38.6742C13.7498 39.4592 13.1348 40.1742 12.2948 41.1642L12.1698 41.3092C9.61472 44.3093 8.81971 45.2893 8.3797 46.2093C7.81425 47.3919 7.52075 48.6861 7.52075 49.9969C7.52075 51.3077 7.81425 52.6019 8.3797 53.7845C8.81971 54.7095 9.61472 55.6845 12.1698 58.6896L12.2948 58.8396C13.1348 59.8246 13.7498 60.5396 14.2748 61.3246C15.4748 63.1197 16.3098 65.1297 16.7248 67.2498C16.9098 68.1748 16.9849 69.1148 17.0899 70.4098L17.1049 70.5998C17.4199 74.5349 17.5499 75.7799 17.8899 76.75C18.7749 79.25 20.7399 81.2201 23.245 82.1001C24.215 82.4501 25.46 82.5751 29.3951 82.8901L29.5851 82.9051C30.8801 83.0051 31.8201 83.0851 32.7451 83.2651C34.8651 83.6851 36.8752 84.5151 38.6702 85.7151C39.4552 86.2452 40.1702 86.8602 41.1603 87.7002L41.3053 87.8252C44.3053 90.3802 45.2853 91.1753 46.2053 91.6153C47.3879 92.1807 48.6821 92.4742 49.9929 92.4742C51.3037 92.4742 52.5979 92.1807 53.7805 91.6153C54.7055 91.1753 55.6805 90.3802 58.6856 87.8252L58.8356 87.7002C59.8206 86.8602 60.5356 86.2451 61.3206 85.7201C63.1156 84.5201 65.1257 83.6851 67.2457 83.2701C68.2912 83.0879 69.3463 82.966 70.4057 82.9051L70.5958 82.8901C74.5308 82.5751 75.7758 82.4451 76.7459 82.1051C79.2459 81.22 81.2159 79.255 82.096 76.75C82.446 75.7799 82.571 74.5299 82.886 70.5998L82.901 70.4098C82.96 69.3488 83.0802 68.292 83.261 67.2448C83.681 65.1297 84.511 63.1197 85.711 61.3246C86.241 60.5396 86.856 59.8246 87.696 58.8346L87.821 58.6896C90.3761 55.6895 91.1711 54.7095 91.6111 53.7895C92.1766 52.6069 92.4701 51.3127 92.4701 50.0019C92.4701 48.6911 92.1766 47.3969 91.6111 46.2143C91.1711 45.2893 90.3761 44.3143 87.821 41.3092L87.696 41.1592C86.856 40.1742 86.241 39.4592 85.716 38.6742C84.5153 36.8807 83.6826 34.8667 83.266 32.749C83.0838 31.7036 82.9619 30.6485 82.901 29.589L82.886 29.399C82.571 25.4639 82.441 24.2189 82.1009 23.2488C81.2159 20.7488 79.2509 18.7788 76.7459 17.8987C75.7758 17.5487 74.5258 17.4237 70.5958 17.1087L70.4057 17.0937C69.3447 17.0342 68.288 16.914 67.2407 16.7337C65.1248 16.3165 63.1126 15.4837 61.3206 14.2837C60.5356 13.7537 59.8206 13.1386 58.8306 12.2986L58.6856 12.1736C55.6855 9.61857 54.7055 8.82355 53.7855 8.38354M70.2207 34.7941C70.571 35.1434 70.849 35.5584 71.0386 36.0153C71.2282 36.4721 71.3258 36.962 71.3258 37.4566C71.3258 37.9513 71.2282 38.4411 71.0386 38.898C70.849 39.3549 70.571 39.7699 70.2207 40.1192L45.1353 65.2047C44.4294 65.9094 43.4727 66.3052 42.4753 66.3052C41.4778 66.3052 40.5211 65.9094 39.8152 65.2047L29.7801 55.1695C29.4068 54.8257 29.1068 54.4101 28.8982 53.9474C28.6896 53.4848 28.5767 52.9847 28.5662 52.4774C28.5558 51.97 28.648 51.4657 28.8374 50.9949C29.0268 50.5241 29.3094 50.0964 29.6682 49.7375C30.027 49.3787 30.4547 49.0961 30.9256 48.9067C31.3964 48.7174 31.9006 48.6251 32.408 48.6356C32.9154 48.646 33.4154 48.7589 33.8781 48.9675C34.3407 49.1761 34.7564 49.4761 35.1002 49.8494L42.4753 57.2196L64.9007 34.7991C65.6066 34.0944 66.5633 33.6986 67.5607 33.6986C68.5582 33.6986 69.5148 34.0944 70.2207 34.7991" fill="#008000"/>
</svg>
