<svg width="26" height="25" viewBox="0 0 26 25" fill="none" xmlns="http://www.w3.org/2000/svg">
<path d="M2.5 22.5L2.50042 18.7495C2.50065 16.6786 4.17952 15 6.25042 15H13.125M18.125 2.49996C19.6419 3.35025 20.625 4.71338 20.625 6.24996C20.625 7.78655 19.6419 9.14967 18.125 9.99996M15 6.24996C15 8.32103 13.3211 9.99996 11.25 9.99996C9.17893 9.99996 7.5 8.32103 7.5 6.24996C7.5 4.1789 9.17893 2.49996 11.25 2.49996C13.3211 2.49996 15 4.1789 15 6.24996Z" stroke="#535353" stroke-width="2" stroke-linecap="round" stroke-linejoin="round"/>
<path d="M16.6355 20.3567C17.0818 21.7569 18.3599 22.7679 19.867 22.7679C21.7453 22.7679 23.2679 21.1977 23.2679 19.2607C23.2679 17.3238 21.7453 15.7536 19.867 15.7536C18.6082 15.7536 17.5091 16.4588 16.9211 17.5071" stroke="#535353" stroke-width="2" stroke-linecap="round" stroke-linejoin="round"/>
</svg>
