<svg width="79" height="79" viewBox="0 0 79 79" fill="none" xmlns="http://www.w3.org/2000/svg">
<g clip-path="url(#clip0_2765_18981)">
<path d="M78.92 39.46C78.92 61.2555 61.2555 78.92 39.46 78.92C17.6707 78.92 0 61.2555 0 39.46C0 17.6645 17.6707 0 39.46 0C48.1474 0 56.175 2.80536 62.6921 7.55906C63.8542 8.40195 64.9678 9.30974 66.0277 10.2781C73.9505 17.498 78.92 27.8933 78.92 39.46Z" fill="#DFDFDF"/>
<path d="M73.4621 39.0006C73.4621 58.0352 58.0352 73.4621 39.0006 73.4621C19.9714 73.4621 4.53906 58.0352 4.53906 39.0006C4.53906 19.966 19.9714 4.53906 39.0006 4.53906C46.5875 4.53906 53.5983 6.98906 59.2898 11.1406C60.3047 11.8767 61.2773 12.6695 62.2029 13.5152C69.1221 19.8206 73.4621 28.8991 73.4621 39.0006Z" fill="#6769FE"/>
<path d="M63.4607 61.3618V63.2787C58.9269 67.8449 53.1276 71.1456 46.6338 72.6156C46.3215 72.6856 46.0092 72.7502 45.6969 72.8095C44.9484 72.9602 44.1892 73.0841 43.4246 73.181C41.9761 73.3641 40.5007 73.461 39.0038 73.461C37.5015 73.461 36.0261 73.3641 34.5776 73.181C33.813 73.0841 33.0592 72.9602 32.3107 72.8095C31.9984 72.7502 31.6807 72.6802 31.3684 72.6102C24.8746 71.1456 19.0807 67.8449 14.5469 63.2841V61.3618C14.5469 57.1456 16.9484 53.301 20.7392 51.4541L27.6853 48.0726L32.3107 45.8164H45.6969L50.3115 48.0672L57.2684 51.4541C59.125 52.3598 60.6898 53.7687 61.7846 55.5204C62.8794 57.2721 63.4602 59.2961 63.4607 61.3618Z" fill="#EDEDED"/>
<path d="M37.4336 51.3398H37.972V72.839H37.4336V51.3398ZM17.8944 58.8729C17.8033 58.8729 17.7136 58.8497 17.6339 58.8056C17.5542 58.7614 17.4869 58.6978 17.4385 58.6206C17.3901 58.5433 17.362 58.4551 17.357 58.3641C17.352 58.2731 17.3702 58.1823 17.4098 58.1002C18.5993 55.6435 20.5783 53.6568 23.0303 52.4577C23.0938 52.4267 23.1629 52.4085 23.2335 52.4042C23.3041 52.3999 23.3749 52.4095 23.4417 52.4325C23.5086 52.4555 23.5703 52.4915 23.6233 52.5384C23.6762 52.5852 23.7195 52.6421 23.7505 52.7057C23.7815 52.7692 23.7997 52.8383 23.804 52.9089C23.8083 52.9795 23.7987 53.0502 23.7756 53.1171C23.7526 53.184 23.7167 53.2457 23.6698 53.2986C23.6229 53.3516 23.5661 53.3948 23.5025 53.4258C21.2676 54.5184 19.4637 56.3291 18.3796 58.5682C18.3357 58.6595 18.2668 58.7366 18.181 58.7905C18.0951 58.8444 17.9958 58.873 17.8944 58.8729ZM16.7416 63.9199C16.5988 63.9199 16.4618 63.8632 16.3608 63.7622C16.2599 63.6612 16.2031 63.5243 16.2031 63.3815C16.2031 62.521 16.2947 61.66 16.475 60.8216C16.4891 60.7517 16.5169 60.6853 16.5569 60.6262C16.5969 60.5671 16.6482 60.5165 16.7078 60.4774C16.7675 60.4384 16.8343 60.4115 16.9044 60.3985C16.9745 60.3854 17.0466 60.3864 17.1163 60.4014C17.186 60.4164 17.2521 60.4452 17.3106 60.4859C17.3691 60.5267 17.419 60.5787 17.4573 60.6388C17.4956 60.699 17.5215 60.7662 17.5336 60.8365C17.5457 60.9068 17.5437 60.9788 17.5277 61.0483C17.363 61.8151 17.2799 62.5972 17.28 63.3815C17.28 63.5243 17.2233 63.6612 17.1223 63.7622C17.0214 63.8632 16.8844 63.9199 16.7416 63.9199Z" fill="white"/>
<path d="M32.3125 37.7656V45.8178L39.0045 51.3408L45.6965 45.8178V37.7656H32.3125Z" fill="#F2B58C"/>
<path d="M45.6905 44.2148C45.6905 44.2148 41.8663 45.0602 38.999 51.3398C38.999 51.3398 45.3781 52.5809 45.691 54.8753C45.691 54.8753 45.0314 49.6862 47.6386 46.7661L45.6905 44.2148ZM32.307 44.2148C32.307 44.2148 36.1311 45.0602 38.999 51.3398C38.999 51.3398 32.6198 52.5809 32.307 54.8753C32.307 54.8753 32.9666 49.6862 30.3594 46.7661L32.307 44.2148Z" fill="white"/>
<path d="M52.2105 24.1189C52.2105 31.4302 46.2837 43.4206 38.9719 43.4206C31.6601 43.4206 25.7344 31.4302 25.7344 24.1189C25.7344 16.8066 31.6607 10.8809 38.9719 10.8809C46.2831 10.8809 52.2105 16.8072 52.2105 24.1189Z" fill="#2F4867"/>
<path d="M52.4029 32.0423C52.4028 32.7456 52.1234 33.4201 51.6261 33.9174C51.1288 34.4147 50.4543 34.6941 49.751 34.6943C48.281 34.6943 47.0867 33.5 47.0867 32.0423C47.0867 31.3356 47.3674 30.6578 47.867 30.158C48.3666 29.6582 49.0443 29.3772 49.751 29.377C51.2216 29.377 52.4029 30.5713 52.4029 32.0423ZM30.9178 32.0423C30.9176 32.7456 30.6382 33.4201 30.1409 33.9174C29.6436 34.4147 28.9692 34.6941 28.2659 34.6943C26.7953 34.6943 25.6016 33.5 25.6016 32.0423C25.6016 31.3356 25.8822 30.6578 26.3819 30.158C26.8815 29.6582 27.5592 29.3772 28.2659 29.377C29.7364 29.377 30.9178 30.5713 30.9178 32.0423Z" fill="#FFBF9C"/>
<path d="M49.9461 29.6612C49.7436 38.4031 44.9131 45.4058 38.9776 45.4058C32.9135 45.4058 28 38.0989 28 29.0904V29.0651C28.0016 27.7012 29.1695 26.6291 30.5313 26.698C32.9522 26.8213 36.0613 26.865 37.9378 26.4406C39.1262 26.1736 40.6835 25.4359 42.2052 24.5905C44.8716 23.1097 48.1988 24.4575 49.0754 27.3792C49.3338 28.2407 49.6252 29.0409 49.9461 29.6612Z" fill="#FFCEAB"/>
<path d="M39.0151 40.6303C38.4195 40.6297 37.8333 40.4817 37.3087 40.1995C37.2667 40.177 37.2295 40.1463 37.1993 40.1094C37.1691 40.0725 37.1464 40.03 37.1327 39.9843C37.1189 39.9386 37.1142 39.8907 37.119 39.8432C37.1237 39.7957 37.1378 39.7497 37.1604 39.7076C37.1829 39.6656 37.2135 39.6284 37.2505 39.5982C37.2874 39.568 37.3299 39.5454 37.3756 39.5316C37.4213 39.5178 37.4692 39.5132 37.5167 39.5179C37.5641 39.5227 37.6102 39.5367 37.6522 39.5593C37.9872 39.7401 38.3548 39.8525 38.7336 39.8901C39.1124 39.9278 39.4949 39.8898 39.8589 39.7784C40.2234 39.6691 40.5627 39.4887 40.857 39.2474C41.1514 39.0062 41.395 38.709 41.5739 38.3731C41.6224 38.2942 41.6992 38.2369 41.7886 38.2128C41.878 38.1886 41.9732 38.1995 42.0549 38.2432C42.1365 38.2869 42.1984 38.3601 42.2279 38.4479C42.2574 38.5357 42.2522 38.6314 42.2136 38.7155C41.9901 39.1358 41.6855 39.5076 41.3173 39.8094C40.9492 40.1112 40.5248 40.3369 40.0689 40.4736C39.727 40.5773 39.3723 40.6301 39.0151 40.6303Z" fill="#FFBF9C"/>
<path d="M50.149 23.2656V33.7791H49.6385C49.2818 33.7788 48.9397 33.6369 48.6875 33.3846C48.4353 33.1323 48.2936 32.7902 48.2934 32.4335V23.2656H50.149ZM27.8594 23.2656V33.7791H28.3693C28.7262 33.7791 29.0685 33.6373 29.321 33.385C29.5734 33.1327 29.7153 32.7904 29.7155 32.4335V23.2656H27.8594ZM44.3799 31.6764C44.3793 32.0067 44.2479 32.3233 44.0143 32.5568C43.7808 32.7904 43.4642 32.9218 43.1339 32.9224C42.8037 32.9217 42.4873 32.7902 42.2538 32.5566C42.0204 32.3231 41.889 32.0066 41.8885 31.6764C41.889 31.3462 42.0204 31.0297 42.2538 30.7962C42.4873 30.5626 42.8037 30.4311 43.1339 30.4304C43.4642 30.431 43.7808 30.5624 44.0143 30.796C44.2479 31.0295 44.3793 31.3461 44.3799 31.6764ZM45.0697 29.5818C45.0697 29.7164 44.962 29.8241 44.8274 29.8241H41.4405C41.3058 29.8241 41.1981 29.7164 41.1981 29.5818C41.1981 29.4472 41.3058 29.3325 41.4405 29.3325H44.8274C44.962 29.3325 45.0697 29.4472 45.0697 29.5818ZM36.0558 31.6764C36.0553 32.0067 35.9238 32.3233 35.6903 32.5568C35.4567 32.7904 35.1401 32.9218 34.8098 32.9224C34.4795 32.922 34.1627 32.7906 33.9291 32.557C33.6954 32.3234 33.5639 32.0068 33.5633 31.6764C33.5639 31.3461 33.6953 31.0295 33.9289 30.796C34.1624 30.5624 34.479 30.431 34.8093 30.4304C35.1395 30.4311 35.4559 30.5626 35.6894 30.7962C35.9228 31.0297 36.0542 31.3462 36.0548 31.6764H36.0558ZM36.7451 29.5818C36.7451 29.7164 36.6374 29.8241 36.5028 29.8241H33.1164C32.9818 29.8241 32.8741 29.7164 32.8741 29.5818C32.8741 29.4472 32.9818 29.3325 33.1164 29.3325H36.5033C36.6379 29.3325 36.7456 29.4472 36.7456 29.5818H36.7451Z" fill="#2F4867"/>
<path d="M37.4531 35.8809C37.7094 37.3019 40.2386 37.3019 40.4954 35.8809C39.508 36.2096 38.4406 36.2096 37.4531 35.8809Z" fill="#FFBF9C"/>
<path d="M39.5621 54.0076C39.5621 54.293 39.3306 54.5246 39.0506 54.5246C38.7652 54.5246 38.5391 54.293 38.5391 54.0076C38.5391 53.872 38.593 53.7419 38.6889 53.6459C38.7848 53.55 38.9149 53.4961 39.0506 53.4961C39.1863 53.4961 39.3164 53.55 39.4123 53.6459C39.5082 53.7419 39.5621 53.872 39.5621 54.0076ZM39.5621 59.0686C39.5621 59.354 39.3306 59.5856 39.0506 59.5856C38.7652 59.5856 38.5391 59.354 38.5391 59.0686C38.5391 58.933 38.593 58.8029 38.6889 58.7069C38.7848 58.611 38.9149 58.5571 39.0506 58.5571C39.1863 58.5571 39.3164 58.611 39.4123 58.7069C39.5082 58.8029 39.5621 58.933 39.5621 59.0686ZM39.5621 64.1291C39.5621 64.4145 39.3306 64.646 39.0506 64.646C38.7652 64.646 38.5391 64.4145 38.5391 64.1291C38.5391 63.9934 38.593 63.8633 38.6889 63.7674C38.7848 63.6714 38.9149 63.6176 39.0506 63.6176C39.1863 63.6176 39.3164 63.6714 39.4123 63.7674C39.5082 63.8633 39.5621 63.9934 39.5621 64.1291ZM39.5621 69.1901C39.5621 69.4755 39.3306 69.707 39.0506 69.707C38.7652 69.707 38.5391 69.4755 38.5391 69.1901C38.5391 69.0544 38.593 68.9243 38.6889 68.8284C38.7848 68.7324 38.9149 68.6786 39.0506 68.6786C39.1863 68.6786 39.3164 68.7324 39.4123 68.8284C39.5082 68.9243 39.5621 69.0544 39.5621 69.1901Z" fill="white"/>
</g>
<defs>
<clipPath id="clip0_2765_18981">
<rect width="79" height="79" fill="white"/>
</clipPath>
</defs>
</svg>
