<svg width="20" height="20" viewBox="0 0 20 20" fill="none" xmlns="http://www.w3.org/2000/svg">
<mask id="mask0_2826_17148" style="mask-type:luminance" maskUnits="userSpaceOnUse" x="1" y="1" width="17" height="17">
<path fill-rule="evenodd" clip-rule="evenodd" d="M1.66663 1.6665H17.8973V17.8973H1.66663V1.6665Z" fill="white"/>
</mask>
<g mask="url(#mask0_2826_17148)">
<path fill-rule="evenodd" clip-rule="evenodd" d="M9.7823 2.91667C5.99646 2.91667 2.91646 5.99583 2.91646 9.78167C2.91646 13.5675 5.99646 16.6475 9.7823 16.6475C13.5673 16.6475 16.6473 13.5675 16.6473 9.78167C16.6473 5.99583 13.5673 2.91667 9.7823 2.91667M9.78222 17.8973C5.30722 17.8973 1.66638 14.2565 1.66638 9.7815C1.66638 5.3065 5.30722 1.6665 9.78222 1.6665C14.2572 1.6665 17.8972 5.3065 17.8972 9.7815C17.8972 14.2565 14.2572 17.8973 9.78222 17.8973" fill="#CECECE"/>
</g>
<mask id="mask1_2826_17148" style="mask-type:luminance" maskUnits="userSpaceOnUse" x="14" y="14" width="5" height="5">
<path fill-rule="evenodd" clip-rule="evenodd" d="M14.3667 14.7559H18.5534V18.9348H14.3667V14.7559Z" fill="white"/>
</mask>
<g mask="url(#mask1_2826_17148)">
<path fill-rule="evenodd" clip-rule="evenodd" d="M17.9286 18.9348C17.7694 18.9348 17.6094 18.874 17.4869 18.7523L14.5502 15.824C14.3061 15.5798 14.3052 15.184 14.5494 14.9398C14.7927 14.694 15.1886 14.6957 15.4336 14.9382L18.3702 17.8673C18.6144 18.1115 18.6152 18.5065 18.3711 18.7507C18.2494 18.874 18.0886 18.9348 17.9286 18.9348" fill="#CECECE"/>
</g>
</svg>
