<svg width="20" height="20" viewBox="0 0 20 20" fill="none" xmlns="http://www.w3.org/2000/svg">
<path d="M6.66677 12.5001V7.50008C6.66677 3.33341 6.16677 1.66675 4.91677 1.66675L3.41677 2.50008C2.16677 2.50008 1.66677 3.33341 1.66677 7.50008V12.5001C1.66677 16.6667 2.16677 17.5001 3.41677 17.5001L4.91677 18.3334C6.16677 18.3334 6.66677 16.6667 6.66677 12.5001Z" fill="#6769FE"/>
<path d="M18.3075 12.5001V7.50008C18.3075 3.33341 16.6408 1.66675 12.4742 1.66675H7.47416C3.30749 1.66675 1.64083 3.33341 1.64083 7.50008V12.5001C1.64083 16.6667 3.30749 18.3334 7.47416 18.3334H12.4742C16.6408 18.3334 18.3075 16.6667 18.3075 12.5001Z" stroke="#6769FE" stroke-width="1.2" stroke-linecap="round" stroke-linejoin="round"/>
<path d="M6.64062 1.66675V18.3334" stroke="#6769FE" stroke-width="1.2" stroke-linecap="round" stroke-linejoin="round"/>
<path d="M12.4752 7.86639L10.3419 9.99973L12.4752 12.1331" stroke="#6769FE" stroke-width="1.2" stroke-linecap="round" stroke-linejoin="round"/>
</svg>
