<svg width="33" height="33" viewBox="0 0 33 33" fill="none" xmlns="http://www.w3.org/2000/svg">
<path d="M22.2472 27.8445L22.2476 23.5594C22.2478 21.1925 20.3291 19.2736 17.9622 19.2736H8.36589C5.99931 19.2736 4.08075 21.192 4.08048 23.5586L4.08 27.8445M29.6796 27.8447L29.68 23.5597C29.6802 21.1928 27.7615 19.2739 25.3946 19.2739M21.4218 5.83083C22.4742 6.61168 23.1562 7.86349 23.1562 9.27459C23.1562 10.6857 22.4742 11.9375 21.4218 12.7184M17.5384 9.27436C17.5384 11.6411 15.6198 13.5598 13.253 13.5598C10.8862 13.5598 8.96758 11.6411 8.96758 9.27436C8.96758 6.90759 10.8862 4.98895 13.253 4.98895C15.6198 4.98895 17.5384 6.90759 17.5384 9.27436Z" stroke="white" stroke-width="2.55" stroke-linecap="round" stroke-linejoin="round"/>
</svg>
