<svg width="25" height="25" viewBox="0 0 25 25" fill="none" xmlns="http://www.w3.org/2000/svg">
<path d="M2.5 22.5L2.50042 18.7495C2.50065 16.6786 4.17952 15 6.25042 15H13.125M18.125 2.49997C19.6419 3.35026 20.625 4.71338 20.625 6.24997C20.625 7.78655 19.6419 9.14968 18.125 9.99997M15 6.24997C15 8.32104 13.3211 9.99997 11.25 9.99997C9.17893 9.99997 7.5 8.32104 7.5 6.24997C7.5 4.1789 9.17893 2.49997 11.25 2.49997C13.3211 2.49997 15 4.1789 15 6.24997Z" stroke="#535353" stroke-width="2" stroke-linecap="round" stroke-linejoin="round"/>
<path d="M18.5 18.8125V18.7467M22.875 18.8656C22.875 18.8656 21.8373 21.9278 18.5 21.8743C15.1627 21.8208 14.125 18.8656 14.125 18.8656C14.125 18.8656 15.1206 15.75 18.5 15.75C21.8794 15.75 22.875 18.8656 22.875 18.8656Z" stroke="#535353" stroke-width="2" stroke-linecap="round" stroke-linejoin="round"/>
</svg>
